HIERARCHY
ROOT Torso
{
	OFFSET 0.000000 0.000000 0.000000
	CHANNELS 6 Xposition Yposition Zposition Zrotation Yrotation Xrotation 
	JOINT LHip
	{
		OFFSET 0.000000 0.000000 0.000000
		CHANNELS 3 Zrotation Yrotation Xrotation
		JOINT LThigh
		{
			OFFSET -0.010000 -0.055000 -0.055000
			CHANNELS 3 Zrotation Yrotation Xrotation
			JOINT LLeg
			{
				OFFSET 0.015000 -0.160000 0.000000
				CHANNELS 3 Zrotation Yrotation Xrotation
				JOINT LFoot
				{
					OFFSET -0.010000 -0.160000 0.000000
					CHANNELS 3 Zrotation Yrotation Xrotation
					JOINT LToes
					{
						OFFSET 0.090000 0.000000 0.000000
						CHANNELS 3 Zrotation Yrotation Xrotation
						End Site
						{
							OFFSET 0.000000 0.000000 0.000000
						}
					}
				}
			}
		}
	}
	JOINT RHip
	{
		OFFSET 0.000000 0.000000 0.000000
		CHANNELS 3 Zrotation Yrotation Xrotation
		JOINT RThigh
		{
			OFFSET -0.010000 -0.055000 0.055000
			CHANNELS 3 Zrotation Yrotation Xrotation
			JOINT RLeg
			{
				OFFSET 0.015000 -0.160000 0.000000
				CHANNELS 3 Zrotation Yrotation Xrotation
				JOINT RFoot
				{
					OFFSET -0.010000 -0.160000 0.000000
					CHANNELS 3 Zrotation Yrotation Xrotation
					JOINT RToes
					{
						OFFSET 0.090000 0.000000 0.000000
						CHANNELS 3 Zrotation Yrotation Xrotation
						End Site
						{
							OFFSET 0.000000 0.000000 0.000000
						}
					}
				}
			}
		}
	}
	JOINT Neck
	{
		OFFSET 0.000000 0.135000 0.000000
		CHANNELS 3 Zrotation Yrotation Xrotation
		JOINT Head
		{
			OFFSET 0.000000 0.075000 0.000000
			CHANNELS 3 Zrotation Yrotation Xrotation
			End Site
			{
				OFFSET 0.000000 0.000000 0.000000
			}
		}
	}
	JOINT LUpperarm
	{
		OFFSET 0.000000 0.150000 -0.098000
		CHANNELS 3 Zrotation Yrotation Xrotation
		JOINT LLowerarm
		{
			OFFSET 0.090000 0.009000 0.000000
			CHANNELS 3 Zrotation Yrotation Xrotation
			JOINT LHand
			{
				OFFSET 0.105000 0.000000 0.000000
				CHANNELS 3 Zrotation Yrotation Xrotation
				End Site
				{
					OFFSET 0.000000 0.000000 0.000000
				}
			}
		}
	}
	JOINT RUpperarm
	{
		OFFSET 0.000000 0.150000 0.098000
		CHANNELS 3 Zrotation Yrotation Xrotation
		JOINT RLowerarm
		{
			OFFSET 0.090000 0.009000 0.000000
			CHANNELS 3 Zrotation Yrotation Xrotation
			JOINT RHand
			{
				OFFSET 0.105000 0.000000 0.000000
				CHANNELS 3 Zrotation Yrotation Xrotation
				End Site
				{
					OFFSET 0.000000 0.000000 0.000000
				}
			}
		}
	}
}
MOTION
Frames: 11
Frame Time: 0.040000
0.000000 0.000000 -0.000000 3.682541 -0.188722 -0.622628 -0.113804 0.104012 6.434226 -1.474363 1.320061 7.396585 -1.576954 0.803962 3.511626 -1.871158 0.945685 -0.000000 0.000000 0.000000 0.000000 -0.012971 0.012233 -5.390605 -1.554248 -1.268986 -7.080501 -1.665408 -0.768715 -3.360562 -2.247011 -0.900386 0.000000 0.000000 0.000000 0.000000 -0.159671 -0.000182 -0.083048 0.000000 0.000000 0.000000 -179.882375 88.976110 179.930563 -1.564644 0.355928 -0.000000 0.000000 0.000000 0.000000 -179.892484 -88.845226 -179.948101 -1.570927 0.602631 0.000000 0.000000 0.000000 0.000000 
0.000000 0.000000 -0.000000 3.681349 -0.253123 -0.614352 -0.126274 0.109822 6.431792 -1.484295 1.321866 7.394591 -1.580580 0.805063 3.510982 -1.871060 0.946606 -0.000000 0.000000 0.000000 0.000000 -0.000542 0.018194 -5.393040 -1.544271 -1.267046 -7.082465 -1.661685 -0.767561 -3.361171 -2.247069 -0.899430 0.000000 0.000000 0.000000 0.000000 -0.159719 -0.000184 -0.083934 0.000000 0.000000 0.000000 -179.879750 88.947538 179.928891 -1.566121 0.367300 -0.000000 0.000000 0.000000 0.000000 -179.995508 -88.764548 179.944960 -1.580500 4.561229 -0.000000 0.000000 0.000000 0.000000 
0.000000 0.000000 -0.000000 3.680060 -0.317509 -0.607027 -0.138648 0.115626 6.429777 -1.494152 1.323707 7.392920 -1.584179 0.806185 3.510473 -1.870958 0.947555 -0.000000 0.000000 0.000000 0.000000 0.011888 0.024181 -5.395027 -1.534293 -1.265061 -7.084083 -1.657958 -0.766386 -3.361636 -2.247131 -0.898444 0.000000 0.000000 0.000000 0.000000 -0.159758 -0.000185 -0.084766 0.000000 0.000000 0.000000 -179.877151 88.919162 179.927231 -1.567487 0.378593 -0.000000 0.000000 0.000000 0.000000 179.900071 -88.685205 179.836792 -1.581546 8.521903 -0.000000 0.000000 0.000000 0.000000 
0.000000 0.000000 -0.000000 3.677529 -0.461508 -0.594227 -0.166253 0.128705 6.426849 -1.516150 1.327990 7.390403 -1.592238 0.808776 3.509846 -1.870717 0.949782 -0.000000 0.000000 0.000000 0.000000 0.039398 0.037553 -5.397775 -1.512219 -1.260482 -7.086404 -1.649709 -0.763676 -3.362141 -2.247292 -0.896130 0.000000 0.000000 0.000000 0.000000 -0.159848 -0.000188 -0.086426 0.000000 0.000000 0.000000 -179.871451 88.856587 179.923579 -1.570118 0.403501 -0.000000 0.000000 0.000000 0.000000 179.663558 -88.512431 179.592645 -1.551878 17.441127 -0.000000 0.000000 0.000000 0.000000 
0.000000 0.000000 -0.000000 3.676790 -0.602703 -0.586498 -0.193699 0.141854 6.426083 -1.538072 1.332465 7.389574 -1.600330 0.811423 3.509916 -1.870473 0.952093 -0.000000 0.000000 0.000000 0.000000 0.065440 0.050426 -5.398182 -1.491344 -1.255863 -7.086933 -1.641916 -0.760927 -3.361916 -2.247482 -0.893718 0.000000 0.000000 0.000000 0.000000 -0.160019 -0.000190 -0.087776 0.000000 0.000000 0.000000 -179.866057 88.796793 179.920100 -1.572117 0.427318 -0.000000 0.000000 0.000000 0.000000 179.431462 -88.349242 179.354324 -1.477546 26.371189 -0.000000 0.000000 0.000000 0.000000 
0.000000 0.000000 -0.000000 3.682412 -0.811546 -0.583066 -0.236299 0.162401 6.428333 -1.572281 1.339681 7.391037 -1.613157 0.815502 3.511143 -1.870134 0.955674 -0.000000 0.000000 0.000000 0.000000 0.100735 0.068393 -5.394997 -1.463120 -1.249007 -7.084835 -1.631431 -0.756763 -3.360399 -2.247817 -0.889945 0.000000 0.000000 0.000000 0.000000 -0.160635 -0.000194 -0.089316 0.000000 0.000000 0.000000 -179.858549 88.712341 179.915213 -1.574101 0.461008 0.000000 0.000000 0.000000 0.000000 179.098038 -88.119704 179.014708 -1.276877 40.284528 -0.000000 0.000000 0.000000 0.000000 
0.000000 0.000000 -0.000000 3.693123 -0.948034 -0.584872 -0.266406 0.176891 6.431372 -1.596651 1.344820 7.393298 -1.622487 0.818224 3.512494 -1.869962 0.958038 -0.000000 0.000000 0.000000 0.000000 0.120538 0.078921 -5.391035 -1.447344 -1.244707 -7.082034 -1.625629 -0.754056 -3.358824 -2.248059 -0.887416 0.000000 0.000000 0.000000 0.000000 -0.161435 -0.000196 -0.090100 0.000000 0.000000 0.000000 -179.854050 88.660760 179.912250 -1.574917 0.481640 0.000000 0.000000 0.000000 0.000000 178.893723 -87.978621 178.808885 -1.076823 50.239948 -0.000000 0.000000 0.000000 0.000000 
0.000000 0.000000 -0.000000 3.709855 -1.069351 -0.587879 -0.295553 0.190782 6.434402 -1.620444 1.349686 7.395677 -1.631775 0.820618 3.513853 -1.869882 0.960058 -0.000000 0.000000 0.000000 0.000000 0.134831 0.086959 -5.386931 -1.436008 -1.241209 -7.079094 -1.621524 -0.751750 -3.357244 -2.248272 -0.885209 0.000000 0.000000 0.000000 0.000000 -0.162561 -0.000199 -0.090738 0.000000 0.000000 0.000000 -179.850433 88.618467 179.909842 -1.575509 0.498616 0.000000 0.000000 0.000000 0.000000 178.727186 -87.861450 178.643329 -0.837871 60.211060 -0.000000 0.000000 0.000000 0.000000 
0.000000 0.000000 -0.000000 3.732050 -1.170871 -0.589954 -0.322666 0.203481 6.436346 -1.642802 1.353987 7.397362 -1.640696 0.822525 3.514869 -1.869919 0.961575 -0.000000 0.000000 0.000000 0.000000 0.143040 0.092114 -5.383849 -1.429551 -1.238759 -7.076881 -1.619267 -0.750001 -3.356029 -2.248425 -0.883495 0.000000 0.000000 0.000000 0.000000 -0.163979 -0.000201 -0.091338 0.000000 0.000000 0.000000 -179.847832 88.587164 179.908085 -1.576134 0.511254 0.000000 0.000000 0.000000 0.000000 178.604874 -87.773194 178.524352 -0.569072 70.199593 -0.000000 0.000000 0.000000 0.000000 
0.000000 0.000000 -0.000000 3.758346 -1.247509 -0.589254 -0.346292 0.214243 6.436285 -1.662540 1.357403 7.397653 -1.648780 0.823792 3.515237 -1.870088 0.962441 -0.000000 0.000000 0.000000 0.000000 0.144856 0.094104 -5.382819 -1.428192 -1.237566 -7.076156 -1.618920 -0.748956 -3.355506 -2.248488 -0.882433 0.000000 0.000000 0.000000 0.000000 -0.165608 -0.000205 -0.091988 0.000000 0.000000 0.000000 -179.846363 88.568440 179.907065 -1.577014 0.518912 0.000000 0.000000 0.000000 0.000000 178.531326 -87.719393 178.456203 -0.280395 80.207834 -0.000000 0.000000 0.000000 0.000000 
0.000000 0.000000 -0.000000 3.780998 -1.287307 -0.585798 -0.361523 0.220892 6.434351 -1.675486 1.359279 7.396538 -1.654256 0.824250 3.514912 -1.870322 0.962585 -0.000000 0.000000 0.000000 0.000000 0.141658 0.093301 -5.383996 -1.430796 -1.237620 -7.077032 -1.620011 -0.748709 -3.355752 -2.248458 -0.882145 0.000000 0.000000 0.000000 0.000000 -0.166981 -0.000207 -0.092582 0.000000 0.000000 0.000000 -179.846074 88.563469 179.906833 -1.578009 0.521064 0.000000 0.000000 0.000000 0.000000 178.509456 -87.705049 178.439861 -0.042182 88.230423 0.000000 0.000000 0.000000 0.000000 
